<svg xmlns="http://www.w3.org/2000/svg" width="1920" height="1080"><path d="M1020,602L1071,758L1098,626Z" fill="#34a5c3" stroke="#34a5c3" stroke-width="1.51"/><path d="M1020,602L1005,848L1071,758Z" fill="#30a1c2" stroke="#30a1c2" stroke-width="1.51"/><path d="M1020,602L759,761L1005,848Z" fill="#39a6c2" stroke="#39a6c2" stroke-width="1.51"/><path d="M1160,497L1001,480L1020,602Z" fill="#40b0c3" stroke="#40b0c3" stroke-width="1.51"/><path d="M1098,626L1160,497L1020,602Z" fill="#3aabc3" stroke="#3aabc3" stroke-width="1.51"/><path d="M1269,643L1160,497L1098,626Z" fill="#35a5c2" stroke="#35a5c2" stroke-width="1.51"/><path d="M1071,758L1269,643L1098,626Z" fill="#2fa0c2" stroke="#2fa0c2" stroke-width="1.51"/><path d="M1367,756L1269,643L1071,758Z" fill="#2696c1" stroke="#2696c1" stroke-width="1.51"/><path d="M1001,480L799,564L1020,602Z" fill="#43b5c4" stroke="#43b5c4" stroke-width="1.51"/><path d="M799,564L759,761L1020,602Z" fill="#49b0c2" stroke="#49b0c2" stroke-width="1.51"/><path d="M1318,997L1367,756L1071,758Z" fill="#2389bc" stroke="#2389bc" stroke-width="1.51"/><path d="M751,922L984,996L1005,848Z" fill="#3d91b9" stroke="#3d91b9" stroke-width="1.51"/><path d="M1187,1033L1071,758L1005,848Z" fill="#2f8dbb" stroke="#2f8dbb" stroke-width="1.51"/><path d="M1269,643L1346,480L1160,497Z" fill="#34a5c2" stroke="#34a5c2" stroke-width="1.51"/><path d="M1001,480L774,405L799,564Z" fill="#57bcc2" stroke="#57bcc2" stroke-width="1.51"/><path d="M1160,497L1003,336L1001,480Z" fill="#51b6c2" stroke="#51b6c2" stroke-width="1.51"/><path d="M799,564L677,682L759,761Z" fill="#54b2c0" stroke="#54b2c0" stroke-width="1.51"/><path d="M759,761L751,922L1005,848Z" fill="#469dbc" stroke="#469dbc" stroke-width="1.51"/><path d="M656,396L677,682L799,564Z" fill="#5dbec1" stroke="#5dbec1" stroke-width="1.51"/><path d="M1417,517L1346,480L1269,643Z" fill="#339ec0" stroke="#339ec0" stroke-width="1.51"/><path d="M1160,497L1096,232L1003,336Z" fill="#5cb8c0" stroke="#5cb8c0" stroke-width="1.51"/><path d="M602,820L751,922L759,761Z" fill="#54a2bb" stroke="#54a2bb" stroke-width="1.51"/><path d="M1367,756L1413,642L1269,643Z" fill="#2892bf" stroke="#2892bf" stroke-width="1.51"/><path d="M984,996L1187,1033L1005,848Z" fill="#3285b6" stroke="#3285b6" stroke-width="1.51"/><path d="M1003,336L774,405L1001,480Z" fill="#5cbec1" stroke="#5cbec1" stroke-width="1.51"/><path d="M984,996L1152,1105L1187,1033Z" fill="#327ab2" stroke="#327ab2" stroke-width="1.51"/><path d="M751,922L929,1080L984,996Z" fill="#4289b4" stroke="#4289b4" stroke-width="1.51"/><path d="M1413,642L1417,517L1269,643Z" fill="#2f97bf" stroke="#2f97bf" stroke-width="1.51"/><path d="M1413,642L1605,601L1417,517Z" fill="#3290bb" stroke="#3290bb" stroke-width="1.51"/><path d="M1367,756L1451,752L1413,642Z" fill="#258abc" stroke="#258abc" stroke-width="1.51"/><path d="M1318,997L1451,752L1367,756Z" fill="#2280b8" stroke="#2280b8" stroke-width="1.51"/><path d="M1187,1033L1318,997L1071,758Z" fill="#2981b7" stroke="#2981b7" stroke-width="1.51"/><path d="M1416,295L1277,321L1346,480Z" fill="#54a7bc" stroke="#54a7bc" stroke-width="1.51"/><path d="M1346,480L1277,321L1160,497Z" fill="#4aaac0" stroke="#4aaac0" stroke-width="1.51"/><path d="M929,1080L1152,1105L984,996Z" fill="#387db2" stroke="#387db2" stroke-width="1.51"/><path d="M1187,1033L1368,1132L1318,997Z" fill="#276fb0" stroke="#276fb0" stroke-width="1.51"/><path d="M1277,321L1096,232L1160,497Z" fill="#5ab3bf" stroke="#5ab3bf" stroke-width="1.51"/><path d="M1003,336L791,243L774,405Z" fill="#6dc5be" stroke="#6dc5be" stroke-width="1.51"/><path d="M677,682L602,820L759,761Z" fill="#56adbe" stroke="#56adbe" stroke-width="1.51"/><path d="M751,922L768,1181L929,1080Z" fill="#4c85b1" stroke="#4c85b1" stroke-width="1.51"/><path d="M488,772L602,820L677,682Z" fill="#62b0be" stroke="#62b0be" stroke-width="1.51"/><path d="M774,405L656,396L799,564Z" fill="#66c2c0" stroke="#66c2c0" stroke-width="1.51"/><path d="M791,243L656,396L774,405Z" fill="#74c8bd" stroke="#74c8bd" stroke-width="1.51"/><path d="M902,108L791,243L1003,336Z" fill="#7ec9bd" stroke="#7ec9bd" stroke-width="1.51"/><path d="M1277,321L1280,153L1096,232Z" fill="#70b7bd" stroke="#70b7bd" stroke-width="1.51"/><path d="M1417,517L1416,295L1346,480Z" fill="#4ba0bc" stroke="#4ba0bc" stroke-width="1.51"/><path d="M1677,442L1416,295L1417,517Z" fill="#4d97b8" stroke="#4d97b8" stroke-width="1.51"/><path d="M602,820L596,1016L751,922Z" fill="#5a99b5" stroke="#5a99b5" stroke-width="1.51"/><path d="M602,820L459,938L596,1016Z" fill="#679db4" stroke="#679db4" stroke-width="1.51"/><path d="M484,578L488,772L677,682Z" fill="#6bb8be" stroke="#6bb8be" stroke-width="1.51"/><path d="M1152,1105L1368,1132L1187,1033Z" fill="#2c6eaf" stroke="#2c6eaf" stroke-width="1.51"/><path d="M1318,997L1512,1011L1451,752Z" fill="#2372b2" stroke="#2372b2" stroke-width="1.51"/><path d="M1243,1376L1368,1132L1152,1105Z" fill="#2d62a8" stroke="#2d62a8" stroke-width="1.51"/><path d="M656,396L484,578L677,682Z" fill="#69c2bf" stroke="#69c2bf" stroke-width="1.51"/><path d="M454,463L484,578L656,396Z" fill="#7bc9be" stroke="#7bc9be" stroke-width="1.51"/><path d="M929,1080L1103,1276L1152,1105Z" fill="#3971ad" stroke="#3971ad" stroke-width="1.51"/><path d="M596,1016L768,1181L751,922Z" fill="#568ab0" stroke="#568ab0" stroke-width="1.51"/><path d="M1451,752L1605,601L1413,642Z" fill="#2c88ba" stroke="#2c88ba" stroke-width="1.51"/><path d="M1614,845L1605,601L1451,752Z" fill="#267db6" stroke="#267db6" stroke-width="1.51"/><path d="M1476,1088L1512,1011L1318,997Z" fill="#2665ac" stroke="#2665ac" stroke-width="1.51"/><path d="M791,243L598,304L656,396Z" fill="#7eccbc" stroke="#7eccbc" stroke-width="1.51"/><path d="M1416,295L1280,153L1277,321Z" fill="#6ab0bc" stroke="#6ab0bc" stroke-width="1.51"/><path d="M1096,232L902,108L1003,336Z" fill="#79c5be" stroke="#79c5be" stroke-width="1.51"/><path d="M791,243L621,102L598,304Z" fill="#91d3ba" stroke="#91d3ba" stroke-width="1.51"/><path d="M1150,79L902,108L1096,232Z" fill="#87c8bd" stroke="#87c8bd" stroke-width="1.51"/><path d="M1368,1132L1476,1088L1318,997Z" fill="#2865ac" stroke="#2865ac" stroke-width="1.51"/><path d="M911,1339L1103,1276L929,1080Z" fill="#3a70a6" stroke="#3a70a6" stroke-width="1.51"/><path d="M1429,1374L1629,1121L1476,1088Z" fill="#2850a1" stroke="#2850a1" stroke-width="1.51"/><path d="M1512,1011L1614,845L1451,752Z" fill="#2370b1" stroke="#2370b1" stroke-width="1.51"/><path d="M1639,1015L1614,845L1512,1011Z" fill="#2261a9" stroke="#2261a9" stroke-width="1.51"/><path d="M1280,153L1150,79L1096,232Z" fill="#81bfbc" stroke="#81bfbc" stroke-width="1.51"/><path d="M484,578L320,632L488,772Z" fill="#7cbfbd" stroke="#7cbfbd" stroke-width="1.51"/><path d="M598,304L454,463L656,396Z" fill="#80ccbc" stroke="#80ccbc" stroke-width="1.51"/><path d="M902,108L817,93L791,243Z" fill="#91d1bb" stroke="#91d1bb" stroke-width="1.51"/><path d="M767,-11L817,93L902,108Z" fill="#9dd5ba" stroke="#9dd5ba" stroke-width="1.51"/><path d="M488,772L459,938L602,820Z" fill="#6ca8b8" stroke="#6ca8b8" stroke-width="1.51"/><path d="M596,1016L653,1205L768,1181Z" fill="#5a82ac" stroke="#5a82ac" stroke-width="1.51"/><path d="M216,741L459,938L488,772Z" fill="#7db0b9" stroke="#7db0b9" stroke-width="1.51"/><path d="M498,1089L653,1205L596,1016Z" fill="#6489ac" stroke="#6489ac" stroke-width="1.51"/><path d="M768,1181L911,1339L929,1080Z" fill="#4776aa" stroke="#4776aa" stroke-width="1.51"/><path d="M722,1297L911,1339L768,1181Z" fill="#49739e" stroke="#49739e" stroke-width="1.51"/><path d="M459,938L498,1089L596,1016Z" fill="#6b94b0" stroke="#6b94b0" stroke-width="1.51"/><path d="M1605,601L1677,442L1417,517Z" fill="#3c8db7" stroke="#3c8db7" stroke-width="1.51"/><path d="M1525,54L1263,0L1280,153Z" fill="#8ab7b9" stroke="#8ab7b9" stroke-width="1.51"/><path d="M1799,577L1677,442L1605,601Z" fill="#3a83b4" stroke="#3a83b4" stroke-width="1.51"/><path d="M1859,772L1799,577L1605,601Z" fill="#3376b1" stroke="#3376b1" stroke-width="1.51"/><path d="M1629,1121L1639,1015L1512,1011Z" fill="#2457a5" stroke="#2457a5" stroke-width="1.51"/><path d="M1629,1121L1512,1011L1476,1088Z" fill="#2659a6" stroke="#2659a6" stroke-width="1.51"/><path d="M575,1280L722,1297L653,1205Z" fill="#56789e" stroke="#56789e" stroke-width="1.51"/><path d="M653,1205L722,1297L768,1181Z" fill="#5479a4" stroke="#5479a4" stroke-width="1.51"/><path d="M598,304L419,243L454,463Z" fill="#8fd3ba" stroke="#8fd3ba" stroke-width="1.51"/><path d="M817,93L621,102L791,243Z" fill="#98d4ba" stroke="#98d4ba" stroke-width="1.51"/><path d="M1280,153L1263,0L1150,79Z" fill="#8cc0bc" stroke="#8cc0bc" stroke-width="1.51"/><path d="M1150,79L1137,-43L902,108Z" fill="#93cbbc" stroke="#93cbbc" stroke-width="1.51"/><path d="M817,93L767,-11L621,102Z" fill="#a3d9b9" stroke="#a3d9b9" stroke-width="1.51"/><path d="M1525,54L1280,153L1416,295Z" fill="#7badb8" stroke="#7badb8" stroke-width="1.51"/><path d="M454,463L320,632L484,578Z" fill="#82c9bd" stroke="#82c9bd" stroke-width="1.51"/><path d="M459,938L219,936L498,1089Z" fill="#7b9bb0" stroke="#7b9bb0" stroke-width="1.51"/><path d="M269,468L320,632L454,463Z" fill="#8dcfbd" stroke="#8dcfbd" stroke-width="1.51"/><path d="M1103,1276L1243,1376L1152,1105Z" fill="#2e64a2" stroke="#2e64a2" stroke-width="1.51"/><path d="M1084,1458L1243,1376L1103,1276Z" fill="#275e90" stroke="#275e90" stroke-width="1.51"/><path d="M1263,0L1137,-43L1150,79Z" fill="#93c5bb" stroke="#93c5bb" stroke-width="1.51"/><path d="M1429,1374L1476,1088L1368,1132Z" fill="#2957a4" stroke="#2957a4" stroke-width="1.51"/><path d="M967,-107L767,-11L902,108Z" fill="#a1d6bb" stroke="#a1d6bb" stroke-width="1.51"/><path d="M1677,442L1684,305L1416,295Z" fill="#5893b3" stroke="#5893b3" stroke-width="1.51"/><path d="M498,1089L575,1280L653,1205Z" fill="#6580a8" stroke="#6580a8" stroke-width="1.51"/><path d="M1024,1501L1084,1458L911,1339Z" fill="#2b638c" stroke="#2b638c" stroke-width="1.51"/><path d="M621,102L419,243L598,304Z" fill="#9dd8b9" stroke="#9dd8b9" stroke-width="1.51"/><path d="M424,62L419,243L621,102Z" fill="#b1dfb7" stroke="#b1dfb7" stroke-width="1.51"/><path d="M1776,1100L1763,930L1639,1015Z" fill="#2553a3" stroke="#2553a3" stroke-width="1.51"/><path d="M1639,1015L1763,930L1614,845Z" fill="#245fa9" stroke="#245fa9" stroke-width="1.51"/><path d="M1677,442L1872,504L1684,305Z" fill="#4f86b0" stroke="#4f86b0" stroke-width="1.51"/><path d="M1859,772L1605,601L1614,845Z" fill="#2873b2" stroke="#2873b2" stroke-width="1.51"/><path d="M1024,1501L911,1339L734,1488Z" fill="#35678c" stroke="#35678c" stroke-width="1.51"/><path d="M911,1339L1084,1458L1103,1276Z" fill="#2d6593" stroke="#2d6593" stroke-width="1.51"/><path d="M946,-188L967,-107L1116,-240Z" fill="#a7d4c1" stroke="#a7d4c1" stroke-width="1.51"/><path d="M1137,-43L967,-107L902,108Z" fill="#9bd0bc" stroke="#9bd0bc" stroke-width="1.51"/><path d="M1363,1527L1429,1374L1243,1376Z" fill="#1a5088" stroke="#1a5088" stroke-width="1.51"/><path d="M1243,1376L1429,1374L1368,1132Z" fill="#235698" stroke="#235698" stroke-width="1.51"/><path d="M1263,0L1261,-216L1137,-43Z" fill="#9cc6bb" stroke="#9cc6bb" stroke-width="1.51"/><path d="M1630,111L1525,54L1416,295Z" fill="#7ca5b4" stroke="#7ca5b4" stroke-width="1.51"/><path d="M419,243L269,468L454,463Z" fill="#97d4ba" stroke="#97d4ba" stroke-width="1.51"/><path d="M1084,1458L1363,1527L1243,1376Z" fill="#1e578b" stroke="#1e578b" stroke-width="1.51"/><path d="M734,1488L911,1339L722,1297Z" fill="#426c8f" stroke="#426c8f" stroke-width="1.51"/><path d="M1771,219L1630,111L1684,305Z" fill="#7294af" stroke="#7294af" stroke-width="1.51"/><path d="M1684,305L1630,111L1416,295Z" fill="#6d9bb2" stroke="#6d9bb2" stroke-width="1.51"/><path d="M127,630L216,741L320,632Z" fill="#91c6bc" stroke="#91c6bc" stroke-width="1.51"/><path d="M320,632L216,741L488,772Z" fill="#85bebc" stroke="#85bebc" stroke-width="1.51"/><path d="M498,1089L457,1300L575,1280Z" fill="#6a80a3" stroke="#6a80a3" stroke-width="1.51"/><path d="M1763,930L1859,772L1614,845Z" fill="#2763ab" stroke="#2763ab" stroke-width="1.51"/><path d="M747,-250L621,-36L767,-11Z" fill="#b4dfb8" stroke="#b4dfb8" stroke-width="1.51"/><path d="M767,-11L621,-36L621,102Z" fill="#acddb8" stroke="#acddb8" stroke-width="1.51"/><path d="M677,1493L734,1488L722,1297Z" fill="#466d8a" stroke="#466d8a" stroke-width="1.51"/><path d="M205,1182L457,1300L498,1089Z" fill="#7b87a7" stroke="#7b87a7" stroke-width="1.51"/><path d="M1763,930L1956,818L1859,772Z" fill="#295da8" stroke="#295da8" stroke-width="1.51"/><path d="M1629,1121L1776,1100L1639,1015Z" fill="#254fa1" stroke="#254fa1" stroke-width="1.51"/><path d="M1647,1366L1776,1100L1629,1121Z" fill="#26449a" stroke="#26449a" stroke-width="1.51"/><path d="M2047,643L1872,504L1799,577Z" fill="#3c72ad" stroke="#3c72ad" stroke-width="1.51"/><path d="M1799,577L1872,504L1677,442Z" fill="#427fb0" stroke="#427fb0" stroke-width="1.51"/><path d="M1716,-40L1511,-32L1525,54Z" fill="#8fa6b0" stroke="#8fa6b0" stroke-width="1.51"/><path d="M1525,54L1511,-32L1263,0Z" fill="#90b2b6" stroke="#90b2b6" stroke-width="1.51"/><path d="M216,741L219,936L459,938Z" fill="#86adb5" stroke="#86adb5" stroke-width="1.51"/><path d="M677,1493L722,1297L575,1280Z" fill="#4e7291" stroke="#4e7291" stroke-width="1.51"/><path d="M1872,504L1771,219L1684,305Z" fill="#5a87ae" stroke="#5a87ae" stroke-width="1.51"/><path d="M1630,111L1716,-40L1525,54Z" fill="#8aa1af" stroke="#8aa1af" stroke-width="1.51"/><path d="M419,243L262,268L269,468Z" fill="#a4dbb8" stroke="#a4dbb8" stroke-width="1.51"/><path d="M491,-71L424,62L621,102Z" fill="#bae3b6" stroke="#bae3b6" stroke-width="1.51"/><path d="M1116,-240L967,-107L1137,-43Z" fill="#a3d0bd" stroke="#a3d0bd" stroke-width="1.51"/><path d="M967,-107L946,-188L767,-11Z" fill="#a9d9ba" stroke="#a9d9ba" stroke-width="1.51"/><path d="M252,47L262,268L419,243Z" fill="#bbe4b6" stroke="#bbe4b6" stroke-width="1.51"/><path d="M269,468L127,630L320,632Z" fill="#93cebc" stroke="#93cebc" stroke-width="1.51"/><path d="M734,1488L677,1493L1024,1501Z" fill="#3d6a8b" stroke="#3d6a8b" stroke-width="1.51"/><path d="M392,1462L677,1493L575,1280Z" fill="#577388" stroke="#577388" stroke-width="1.51"/><path d="M1429,1374L1647,1366L1629,1121Z" fill="#204691" stroke="#204691" stroke-width="1.51"/><path d="M1024,1501L1363,1527L1084,1458Z" fill="#235b8c" stroke="#235b8c" stroke-width="1.51"/><path d="M677,1493L1363,1527L1024,1501Z" fill="#2a628c" stroke="#2a628c" stroke-width="1.51"/><path d="M41,443L127,630L269,468Z" fill="#9ed5bc" stroke="#9ed5bc" stroke-width="1.51"/><path d="M216,741L133,944L219,936Z" fill="#8eafb5" stroke="#8eafb5" stroke-width="1.51"/><path d="M1500,1507L1647,1366L1429,1374Z" fill="#184382" stroke="#184382" stroke-width="1.51"/><path d="M1415,-235L1261,-216L1263,0Z" fill="#9ec1bd" stroke="#9ec1bd" stroke-width="1.51"/><path d="M1261,-216L1116,-240L1137,-43Z" fill="#a2cbc0" stroke="#a2cbc0" stroke-width="1.51"/><path d="M2047,643L1994,489L1872,504Z" fill="#3c71a8" stroke="#3c71a8" stroke-width="1.51"/><path d="M2012,991L1956,818L1763,930Z" fill="#2752a2" stroke="#2752a2" stroke-width="1.51"/><path d="M2012,991L1763,930L1776,1100Z" fill="#264b9f" stroke="#264b9f" stroke-width="1.51"/><path d="M747,-250L767,-11L946,-188Z" fill="#b0dcbd" stroke="#b0dcbd" stroke-width="1.51"/><path d="M445,-197L491,-71L617,-292Z" fill="#c9e9bd" stroke="#c9e9bd" stroke-width="1.51"/><path d="M621,-36L491,-71L621,102Z" fill="#b6e1b7" stroke="#b6e1b7" stroke-width="1.51"/><path d="M252,47L149,249L262,268Z" fill="#c0e6b5" stroke="#c0e6b5" stroke-width="1.51"/><path d="M42,821L133,944L216,741Z" fill="#92b5b6" stroke="#92b5b6" stroke-width="1.51"/><path d="M219,936L205,1182L498,1089Z" fill="#8496ac" stroke="#8496ac" stroke-width="1.51"/><path d="M1363,1527L1500,1507L1429,1374Z" fill="#194a85" stroke="#194a85" stroke-width="1.51"/><path d="M457,1300L392,1462L575,1280Z" fill="#647990" stroke="#647990" stroke-width="1.51"/><path d="M133,944L205,1182L219,936Z" fill="#8c9eae" stroke="#8c9eae" stroke-width="1.51"/><path d="M1872,504L1961,233L1771,219Z" fill="#5e82ab" stroke="#5e82ab" stroke-width="1.51"/><path d="M2047,643L1799,577L1859,772Z" fill="#346cac" stroke="#346cac" stroke-width="1.51"/><path d="M1116,-240L747,-250L946,-188Z" fill="#abdac6" stroke="#abdac6" stroke-width="1.51"/><path d="M252,47L419,243L424,62Z" fill="#c0e6b5" stroke="#c0e6b5" stroke-width="1.51"/><path d="M262,268L149,249L269,468Z" fill="#aaddb7" stroke="#aaddb7" stroke-width="1.51"/><path d="M1511,-32L1415,-235L1263,0Z" fill="#9ab9b7" stroke="#9ab9b7" stroke-width="1.51"/><path d="M1858,61L1716,-40L1630,111Z" fill="#8999ac" stroke="#8999ac" stroke-width="1.51"/><path d="M1858,61L1630,111L1771,219Z" fill="#8095ac" stroke="#8095ac" stroke-width="1.51"/><path d="M1593,-238L1415,-235L1511,-32Z" fill="#9cb1b8" stroke="#9cb1b8" stroke-width="1.51"/><path d="M1261,-216L1415,-235L1116,-240Z" fill="#a1c6c5" stroke="#a1c6c5" stroke-width="1.51"/><path d="M1116,-240L617,-292L747,-250Z" fill="#b4dec7" stroke="#b4dec7" stroke-width="1.51"/><path d="M37,1192L159,1258L205,1182Z" fill="#8c8ca3" stroke="#8c8ca3" stroke-width="1.51"/><path d="M127,630L42,821L216,741Z" fill="#95c2bb" stroke="#95c2bb" stroke-width="1.51"/><path d="M-32,804L42,821L127,630Z" fill="#99c2bb" stroke="#99c2bb" stroke-width="1.51"/><path d="M1956,818L2047,643L1859,772Z" fill="#2c62a8" stroke="#2c62a8" stroke-width="1.51"/><path d="M209,-107L252,47L281,-183Z" fill="#dcf1b2" stroke="#dcf1b2" stroke-width="1.51"/><path d="M281,-183L252,47L424,62Z" fill="#d3edb3" stroke="#d3edb3" stroke-width="1.51"/><path d="M230,1375L392,1462L457,1300Z" fill="#6d7b8b" stroke="#6d7b8b" stroke-width="1.51"/><path d="M1363,1527L1643,1496L1500,1507Z" fill="#184483" stroke="#184483" stroke-width="1.51"/><path d="M1500,1507L1643,1496L1647,1366Z" fill="#163d7f" stroke="#163d7f" stroke-width="1.51"/><path d="M1647,1366L1788,1370L1776,1100Z" fill="#203b8d" stroke="#203b8d" stroke-width="1.51"/><path d="M1956,818L2188,850L2047,643Z" fill="#255b9c" stroke="#255b9c" stroke-width="1.51"/><path d="M1643,1496L1788,1370L1647,1366Z" fill="#17377d" stroke="#17377d" stroke-width="1.51"/><path d="M1961,1130L2012,991L1776,1100Z" fill="#26409a" stroke="#26409a" stroke-width="1.51"/><path d="M-41,340L41,443L149,249Z" fill="#b4e0b7" stroke="#b4e0b7" stroke-width="1.51"/><path d="M149,249L41,443L269,468Z" fill="#a9dbb9" stroke="#a9dbb9" stroke-width="1.51"/><path d="M1788,1370L1961,1130L1776,1100Z" fill="#253a95" stroke="#253a95" stroke-width="1.51"/><path d="M1994,489L1961,233L1872,504Z" fill="#5279a9" stroke="#5279a9" stroke-width="1.51"/><path d="M2147,345L1961,233L1994,489Z" fill="#54789f" stroke="#54789f" stroke-width="1.51"/><path d="M1963,130L1858,61L1771,219Z" fill="#7f8da9" stroke="#7f8da9" stroke-width="1.51"/><path d="M205,1182L230,1375L457,1300Z" fill="#7c8398" stroke="#7c8398" stroke-width="1.51"/><path d="M37,1192L205,1182L133,944Z" fill="#8f96aa" stroke="#8f96aa" stroke-width="1.51"/><path d="M617,-292L491,-71L621,-36Z" fill="#c1e5b8" stroke="#c1e5b8" stroke-width="1.51"/><path d="M747,-250L617,-292L621,-36Z" fill="#bbe3bf" stroke="#bbe3bf" stroke-width="1.51"/><path d="M1772,-292L617,-292L1116,-240Z" fill="#a6ccca" stroke="#a6ccca" stroke-width="1.51"/><path d="M159,1258L230,1375L205,1182Z" fill="#83869a" stroke="#83869a" stroke-width="1.51"/><path d="M1415,-235L1772,-292L1116,-240Z" fill="#9fb8c2" stroke="#9fb8c2" stroke-width="1.51"/><path d="M1716,-40L1593,-238L1511,-32Z" fill="#98a7af" stroke="#98a7af" stroke-width="1.51"/><path d="M1772,-292L1593,-238L1716,-40Z" fill="#9ba2b4" stroke="#9ba2b4" stroke-width="1.51"/><path d="M42,821L-23,937L133,944Z" fill="#96afb3" stroke="#96afb3" stroke-width="1.51"/><path d="M-91,664L-32,804L127,630Z" fill="#9ec8bb" stroke="#9ec8bb" stroke-width="1.51"/><path d="M1858,61L1880,-50L1716,-40Z" fill="#8f95a9" stroke="#8f95a9" stroke-width="1.51"/><path d="M1961,233L1963,130L1771,219Z" fill="#7587a9" stroke="#7587a9" stroke-width="1.51"/><path d="M2226,101L1963,130L1961,233Z" fill="#75829c" stroke="#75829c" stroke-width="1.51"/><path d="M59,1514L252,1426L230,1375Z" fill="#787e87" stroke="#787e87" stroke-width="1.51"/><path d="M230,1375L252,1426L392,1462Z" fill="#717b87" stroke="#717b87" stroke-width="1.51"/><path d="M-32,804L-23,937L42,821Z" fill="#9ab6b5" stroke="#9ab6b5" stroke-width="1.51"/><path d="M159,1258L59,1514L230,1375Z" fill="#7c808a" stroke="#7c808a" stroke-width="1.51"/><path d="M1963,130L1880,-50L1858,61Z" fill="#898da7" stroke="#898da7" stroke-width="1.51"/><path d="M-23,937L37,1192L133,944Z" fill="#94a0ad" stroke="#94a0ad" stroke-width="1.51"/><path d="M1788,1370L2009,1351L1961,1130Z" fill="#1e3087" stroke="#1e3087" stroke-width="1.51"/><path d="M2175,1032L2188,850L2012,991Z" fill="#1d438d" stroke="#1d438d" stroke-width="1.51"/><path d="M1643,1496L1849,1460L1788,1370Z" fill="#17337b" stroke="#17337b" stroke-width="1.51"/><path d="M85,-72L64,113L252,47Z" fill="#d9efb3" stroke="#d9efb3" stroke-width="1.51"/><path d="M252,47L64,113L149,249Z" fill="#cceab4" stroke="#cceab4" stroke-width="1.51"/><path d="M41,443L-91,664L127,630Z" fill="#a2d2bb" stroke="#a2d2bb" stroke-width="1.51"/><path d="M-112,426L-91,664L41,443Z" fill="#a9d9bd" stroke="#a9d9bd" stroke-width="1.51"/><path d="M-32,804L-194,951L-23,937Z" fill="#9bb1b7" stroke="#9bb1b7" stroke-width="1.51"/><path d="M-23,937L-125,1181L37,1192Z" fill="#989aab" stroke="#989aab" stroke-width="1.51"/><path d="M64,113L-41,340L149,249Z" fill="#c3e7b5" stroke="#c3e7b5" stroke-width="1.51"/><path d="M281,-183L491,-71L445,-197Z" fill="#d3edb8" stroke="#d3edb8" stroke-width="1.51"/><path d="M281,-183L424,62L491,-71Z" fill="#cdebb4" stroke="#cdebb4" stroke-width="1.51"/><path d="M617,-292L281,-183L445,-197Z" fill="#d2edbf" stroke="#d2edbf" stroke-width="1.51"/><path d="M1963,130L1948,-113L1880,-50Z" fill="#8e8da6" stroke="#8e8da6" stroke-width="1.51"/><path d="M2047,643L2173,454L1994,489Z" fill="#3a6e9f" stroke="#3a6e9f" stroke-width="1.51"/><path d="M2223,599L2173,454L2047,643Z" fill="#326897" stroke="#326897" stroke-width="1.51"/><path d="M2173,454L2147,345L1994,489Z" fill="#47719a" stroke="#47719a" stroke-width="1.51"/><path d="M2012,991L2188,850L1956,818Z" fill="#234e97" stroke="#234e97" stroke-width="1.51"/><path d="M2175,1032L2012,991L1961,1130Z" fill="#213d8f" stroke="#213d8f" stroke-width="1.51"/><path d="M-41,340L-112,426L41,443Z" fill="#b3dfba" stroke="#b3dfba" stroke-width="1.51"/><path d="M-248,436L-112,426L-279,345Z" fill="#b7e0c4" stroke="#b7e0c4" stroke-width="1.51"/><path d="M1849,1460L2009,1351L1788,1370Z" fill="#182c78" stroke="#182c78" stroke-width="1.51"/><path d="M2188,850L2223,599L2047,643Z" fill="#265d95" stroke="#265d95" stroke-width="1.51"/><path d="M2173,454L2226,101L2147,345Z" fill="#557490" stroke="#557490" stroke-width="1.51"/><path d="M2142,1189L2175,1032L1961,1130Z" fill="#1f3588" stroke="#1f3588" stroke-width="1.51"/><path d="M2188,850L2217,1379L2223,599Z" fill="#194185" stroke="#194185" stroke-width="1.51"/><path d="M1880,-50L1772,-292L1716,-40Z" fill="#989bac" stroke="#989bac" stroke-width="1.51"/><path d="M2142,-58L1948,-113L1963,130Z" fill="#89899e" stroke="#89899e" stroke-width="1.51"/><path d="M2009,1351L2142,1189L1961,1130Z" fill="#1e2e85" stroke="#1e2e85" stroke-width="1.51"/><path d="M64,113L-28,53L-41,340Z" fill="#d1ecb4" stroke="#d1ecb4" stroke-width="1.51"/><path d="M209,-107L85,-72L252,47Z" fill="#dcf1b3" stroke="#dcf1b3" stroke-width="1.51"/><path d="M101,-196L85,-72L209,-107Z" fill="#e5f5b3" stroke="#e5f5b3" stroke-width="1.51"/><path d="M1948,-113L1772,-292L1880,-50Z" fill="#9995ac" stroke="#9995ac" stroke-width="1.51"/><path d="M1593,-238L1772,-292L1415,-235Z" fill="#9daabc" stroke="#9daabc" stroke-width="1.51"/><path d="M2009,1351L2217,1379L2142,1189Z" fill="#152671" stroke="#152671" stroke-width="1.51"/><path d="M1849,1460L2013,1437L2009,1351Z" fill="#162773" stroke="#162773" stroke-width="1.51"/><path d="M2176,1502L2013,1437L1849,1460Z" fill="#13256e" stroke="#13256e" stroke-width="1.51"/><path d="M85,-72L-28,53L64,113Z" fill="#def2b3" stroke="#def2b3" stroke-width="1.51"/><path d="M-221,759L-32,804L-91,664Z" fill="#a0c5c1" stroke="#a0c5c1" stroke-width="1.51"/><path d="M-221,759L-194,951L-32,804Z" fill="#9eb9be" stroke="#9eb9be" stroke-width="1.51"/><path d="M37,1192L-73,1295L159,1258Z" fill="#8e8b9e" stroke="#8e8b9e" stroke-width="1.51"/><path d="M-235,597L-91,664L-112,426Z" fill="#a8d6c4" stroke="#a8d6c4" stroke-width="1.51"/><path d="M-235,597L-221,759L-91,664Z" fill="#a4ccc5" stroke="#a4ccc5" stroke-width="1.51"/><path d="M-194,951L-125,1181L-23,937Z" fill="#9aa2b3" stroke="#9aa2b3" stroke-width="1.51"/><path d="M-125,1181L-73,1295L37,1192Z" fill="#948ea3" stroke="#948ea3" stroke-width="1.51"/><path d="M-248,436L-235,597L-112,426Z" fill="#afdcc6" stroke="#afdcc6" stroke-width="1.51"/><path d="M617,-292L101,-196L281,-183Z" fill="#ddf2bd" stroke="#ddf2bd" stroke-width="1.51"/><path d="M281,-183L101,-196L209,-107Z" fill="#e4f4b7" stroke="#e4f4b7" stroke-width="1.51"/><path d="M85,-72L-97,-98L-28,53Z" fill="#e7f5b2" stroke="#e7f5b2" stroke-width="1.51"/><path d="M-73,1295L59,1514L159,1258Z" fill="#84838d" stroke="#84838d" stroke-width="1.51"/><path d="M252,1426L59,1514L392,1462Z" fill="#757d87" stroke="#757d87" stroke-width="1.51"/><path d="M392,1462L59,1514L677,1493Z" fill="#6a7887" stroke="#6a7887" stroke-width="1.51"/><path d="M677,1493L59,1514L1363,1527Z" fill="#476d8a" stroke="#476d8a" stroke-width="1.51"/><path d="M-279,345L-41,340L-232,81Z" fill="#c9e9c0" stroke="#c9e9c0" stroke-width="1.51"/><path d="M-279,345L-112,426L-41,340Z" fill="#b8e1bf" stroke="#b8e1bf" stroke-width="1.51"/><path d="M2147,345L2226,101L1961,233Z" fill="#667b96" stroke="#667b96" stroke-width="1.51"/><path d="M1948,-113L2000,-234L1772,-292Z" fill="#9a93b0" stroke="#9a93b0" stroke-width="1.51"/><path d="M2223,599L2226,101L2173,454Z" fill="#476e8f" stroke="#476e8f" stroke-width="1.51"/><path d="M2156,-177L2000,-234L1948,-113Z" fill="#938ca1" stroke="#938ca1" stroke-width="1.51"/><path d="M2226,101L2142,-58L1963,130Z" fill="#7d8395" stroke="#7d8395" stroke-width="1.51"/><path d="M-248,436L-279,345L-235,597Z" fill="#b3ddc8" stroke="#b3ddc8" stroke-width="1.51"/><path d="M-235,597L-286,1122L-221,759Z" fill="#a0bcc4" stroke="#a0bcc4" stroke-width="1.51"/><path d="M-232,81L-41,340L-28,53Z" fill="#d5eeb9" stroke="#d5eeb9" stroke-width="1.51"/><path d="M2013,1437L2217,1379L2009,1351Z" fill="#11246a" stroke="#11246a" stroke-width="1.51"/><path d="M2142,1189L2217,1379L2175,1032Z" fill="#192a7b" stroke="#192a7b" stroke-width="1.51"/><path d="M2175,1032L2217,1379L2188,850Z" fill="#1a347f" stroke="#1a347f" stroke-width="1.51"/><path d="M-70,-209L-97,-98L85,-72Z" fill="#eef8b3" stroke="#eef8b3" stroke-width="1.51"/><path d="M-125,1181L-227,1292L-73,1295Z" fill="#938da3" stroke="#938da3" stroke-width="1.51"/><path d="M-73,1295L-123,1463L59,1514Z" fill="#848288" stroke="#848288" stroke-width="1.51"/><path d="M-194,951L-286,1122L-125,1181Z" fill="#9c9db5" stroke="#9c9db5" stroke-width="1.51"/><path d="M-221,759L-286,1122L-194,951Z" fill="#9dadbd" stroke="#9dadbd" stroke-width="1.51"/><path d="M-279,345L-286,1122L-235,597Z" fill="#a5ccc9" stroke="#a5ccc9" stroke-width="1.51"/><path d="M-227,1292L-123,1463L-73,1295Z" fill="#8a8695" stroke="#8a8695" stroke-width="1.51"/><path d="M2013,1437L2176,1502L2217,1379Z" fill="#0e2163" stroke="#0e2163" stroke-width="1.51"/><path d="M1643,1496L2176,1502L1849,1460Z" fill="#172b77" stroke="#172b77" stroke-width="1.51"/><path d="M1363,1527L2176,1502L1643,1496Z" fill="#17357c" stroke="#17357c" stroke-width="1.51"/><path d="M-286,1122L-227,1292L-125,1181Z" fill="#9a91b0" stroke="#9a91b0" stroke-width="1.51"/><path d="M-97,-98L-232,81L-28,53Z" fill="#e6f5b8" stroke="#e6f5b8" stroke-width="1.51"/><path d="M2226,101L2156,-177L2142,-58Z" fill="#82848f" stroke="#82848f" stroke-width="1.51"/><path d="M2142,-58L2156,-177L1948,-113Z" fill="#8e8998" stroke="#8e8998" stroke-width="1.51"/><path d="M-97,-98L-309,-29L-232,81Z" fill="#ebf7be" stroke="#ebf7be" stroke-width="1.51"/><path d="M101,-196L-70,-209L85,-72Z" fill="#ecf8b6" stroke="#ecf8b6" stroke-width="1.51"/><path d="M617,-292L-70,-209L101,-196Z" fill="#e5f5bd" stroke="#e5f5bd" stroke-width="1.51"/><path d="M-227,1292L-220,1456L-123,1463Z" fill="#868390" stroke="#868390" stroke-width="1.51"/><path d="M-123,1463L-220,1456L59,1514Z" fill="#85828b" stroke="#85828b" stroke-width="1.51"/><path d="M-286,1122L-220,1456L-227,1292Z" fill="#928ba4" stroke="#928ba4" stroke-width="1.51"/><path d="M-273,-229L-309,-29L-97,-98Z" fill="#f4fbbf" stroke="#f4fbbf" stroke-width="1.51"/><path d="M-232,81L-309,-29L-279,345Z" fill="#def2c3" stroke="#def2c3" stroke-width="1.51"/><path d="M-279,345L-309,-29L-286,1122Z" fill="#b2ddcb" stroke="#b2ddcb" stroke-width="1.51"/><path d="M-70,-209L-273,-229L-97,-98Z" fill="#f4fbc0" stroke="#f4fbc0" stroke-width="1.51"/><path d="M617,-292L-273,-229L-70,-209Z" fill="#edf8be" stroke="#edf8be" stroke-width="1.51"/></svg>